<svg xmlns="http://www.w3.org/2000/svg" width="800" height="700" viewBox="0 0 800 700" fill="none">
  <!-- 背景 -->
  <rect width="800" height="700" fill="#F9FAFB"/>
  
  <!-- タイトル -->
  <text x="400" y="50" font-family="Arial, sans-serif" font-size="24" font-weight="bold" text-anchor="middle" fill="#111827">グローバル・ハーモニー・シティ</text>
  <text x="400" y="80" font-family="Arial, sans-serif" font-size="16" text-anchor="middle" fill="#4B5563">ネットワークトポロジー</text>
  
  <!-- クラウド部分の背景 -->
  <rect x="50" y="120" width="700" height="260" rx="10" fill="#EFF6FF" stroke="#3B82F6" stroke-width="2"/>
  <text x="400" y="145" font-family="Arial, sans-serif" font-size="18" font-weight="bold" text-anchor="middle" fill="#1E40AF">Microsoft クラウド基盤</text>
  
  <!-- Microsoft 365部分 -->
  <rect x="80" y="170" width="300" height="180" rx="8" fill="#DBEAFE" stroke="#3B82F6" stroke-width="2"/>
  <text x="230" y="190" font-family="Arial, sans-serif" font-size="16" font-weight="bold" text-anchor="middle" fill="#1E40AF">Microsoft 365</text>
  
  <!-- M365サービス -->
  <rect x="100" y="210" width="120" height="40" rx="6" fill="#BFDBFE" stroke="#3B82F6" stroke-width="1"/>
  <text x="160" y="235" font-family="Arial, sans-serif" font-size="12" text-anchor="middle" fill="#1E40AF">SharePoint Online</text>
  
  <rect x="100" y="260" width="120" height="40" rx="6" fill="#BFDBFE" stroke="#3B82F6" stroke-width="1"/>
  <text x="160" y="285" font-family="Arial, sans-serif" font-size="12" text-anchor="middle" fill="#1E40AF">Microsoft Teams</text>
  
  <rect x="100" y="310" width="120" height="30" rx="6" fill="#BFDBFE" stroke="#3B82F6" stroke-width="1"/>
  <text x="160" y="330" font-family="Arial, sans-serif" font-size="10" text-anchor="middle" fill="#1E40AF">Exchange Online</text>
  
  <rect x="230" y="210" width="130" height="40" rx="6" fill="#BFDBFE" stroke="#3B82F6" stroke-width="1"/>
  <text x="295" y="235" font-family="Arial, sans-serif" font-size="12" text-anchor="middle" fill="#1E40AF">Power Platform</text>
  
  <rect x="230" y="260" width="130" height="40" rx="6" fill="#BFDBFE" stroke="#3B82F6" stroke-width="1"/>
  <text x="295" y="285" font-family="Arial, sans-serif" font-size="12" text-anchor="middle" fill="#1E40AF">Microsoft Entra ID</text>
  
  <rect x="230" y="310" width="130" height="30" rx="6" fill="#BFDBFE" stroke="#3B82F6" stroke-width="1"/>
  <text x="295" y="330" font-family="Arial, sans-serif" font-size="10" text-anchor="middle" fill="#1E40AF">OneDrive for Business</text>
  
  <!-- Azure部分 -->
  <rect x="420" y="170" width="300" height="180" rx="8" fill="#F0FDF4" stroke="#10B981" stroke-width="2"/>
  <text x="570" y="190" font-family="Arial, sans-serif" font-size="16" font-weight="bold" text-anchor="middle" fill="#047857">Microsoft Azure</text>
  
  <!-- Azureサービス -->
  <rect x="440" y="210" width="120" height="40" rx="6" fill="#D1FAE5" stroke="#10B981" stroke-width="1"/>
  <text x="500" y="235" font-family="Arial, sans-serif" font-size="12" text-anchor="middle" fill="#047857">Azure Functions</text>
  
  <rect x="440" y="260" width="120" height="40" rx="6" fill="#D1FAE5" stroke="#10B981" stroke-width="1"/>
  <text x="500" y="285" font-family="Arial, sans-serif" font-size="12" text-anchor="middle" fill="#047857">Azure SQL</text>
  
  <rect x="440" y="310" width="120" height="30" rx="6" fill="#D1FAE5" stroke="#10B981" stroke-width="1"/>
  <text x="500" y="330" font-family="Arial, sans-serif" font-size="10" text-anchor="middle" fill="#047857">Azure Key Vault</text>
  
  <rect x="570" y="210" width="130" height="40" rx="6" fill="#D1FAE5" stroke="#10B981" stroke-width="1"/>
  <text x="635" y="235" font-family="Arial, sans-serif" font-size="12" text-anchor="middle" fill="#047857">Azure Storage</text>
  
  <rect x="570" y="260" width="130" height="40" rx="6" fill="#D1FAE5" stroke="#10B981" stroke-width="1"/>
  <text x="635" y="285" font-family="Arial, sans-serif" font-size="12" text-anchor="middle" fill="#047857">Azure Monitor</text>
  
  <rect x="570" y="310" width="130" height="30" rx="6" fill="#D1FAE5" stroke="#10B981" stroke-width="1"/>
  <text x="635" y="330" font-family="Arial, sans-serif" font-size="10" text-anchor="middle" fill="#047857">Application Insights</text>
  
  <!-- クラウド間の接続 -->
  <line x1="380" y1="240" x2="420" y2="240" stroke="#4B5563" stroke-width="2"/>
  <polygon points="415,235 425,240 415,245" fill="#4B5563"/>
  
  <line x1="380" y1="280" x2="420" y2="280" stroke="#4B5563" stroke-width="2"/>
  <polygon points="385,275 375,280 385,285" fill="#4B5563"/>
  
  <!-- インターネット部分 -->
  <ellipse cx="400" cy="435" rx="180" ry="45" fill="#FEF3C7" stroke="#D97706" stroke-width="2"/>
  <text x="400" y="435" font-family="Arial, sans-serif" font-size="18" font-weight="bold" text-anchor="middle" fill="#92400E">インターネット</text>
  <text x="400" y="455" font-family="Arial, sans-serif" font-size="12" text-anchor="middle" fill="#92400E">HTTPS / TLS 1.3</text>
  
  <!-- クラウドとインターネットの接続 -->
  <line x1="400" y1="380" x2="400" y2="390" stroke="#4B5563" stroke-width="2"/>
  <polygon points="395,385 400,395 405,385" fill="#4B5563"/>
  
  <!-- エンドユーザー部分の背景 -->
  <rect x="50" y="490" width="700" height="180" rx="10" fill="#F0F9FF" stroke="#0EA5E9" stroke-width="2"/>
  <text x="400" y="515" font-family="Arial, sans-serif" font-size="18" font-weight="bold" text-anchor="middle" fill="#0369A1">エンドユーザーアクセス</text>
  
  <!-- デバイス -->
  <rect x="80" y="540" width="120" height="110" rx="8" fill="#E0F2FE" stroke="#0EA5E9" stroke-width="2"/>
  <text x="140" y="560" font-family="Arial, sans-serif" font-size="14" font-weight="bold" text-anchor="middle" fill="#0369A1">自治体職員</text>
  <rect x="95" y="570" width="90" height="30" rx="5" fill="#BAE6FD" stroke="#0EA5E9" stroke-width="1"/>
  <text x="140" y="590" font-family="Arial, sans-serif" font-size="10" text-anchor="middle" fill="#0369A1">管理PCデバイス</text>
  <rect x="95" y="610" width="90" height="30" rx="5" fill="#BAE6FD" stroke="#0EA5E9" stroke-width="1"/>
  <text x="140" y="630" font-family="Arial, sans-serif" font-size="10" text-anchor="middle" fill="#0369A1">モバイルデバイス</text>
  
  <rect x="230" y="540" width="120" height="110" rx="8" fill="#E0F2FE" stroke="#0EA5E9" stroke-width="2"/>
  <text x="290" y="560" font-family="Arial, sans-serif" font-size="14" font-weight="bold" text-anchor="middle" fill="#0369A1">住民</text>
  <rect x="245" y="570" width="90" height="30" rx="5" fill="#BAE6FD" stroke="#0EA5E9" stroke-width="1"/>
  <text x="290" y="590" font-family="Arial, sans-serif" font-size="10" text-anchor="middle" fill="#0369A1">PCブラウザ</text>
  <rect x="245" y="610" width="90" height="30" rx="5" fill="#BAE6FD" stroke="#0EA5E9" stroke-width="1"/>
  <text x="290" y="630" font-family="Arial, sans-serif" font-size="10" text-anchor="middle" fill="#0369A1">モバイルアプリ</text>
  
  <rect x="380" y="540" width="120" height="110" rx="8" fill="#E0F2FE" stroke="#0EA5E9" stroke-width="2"/>
  <text x="440" y="560" font-family="Arial, sans-serif" font-size="14" font-weight="bold" text-anchor="middle" fill="#0369A1">コミュニティ</text>
  <rect x="395" y="570" width="90" height="30" rx="5" fill="#BAE6FD" stroke="#0EA5E9" stroke-width="1"/>
  <text x="440" y="590" font-family="Arial, sans-serif" font-size="10" text-anchor="middle" fill="#0369A1">Teamsクライアント</text>
  <rect x="395" y="610" width="90" height="30" rx="5" fill="#BAE6FD" stroke="#0EA5E9" stroke-width="1"/>
  <text x="440" y="630" font-family="Arial, sans-serif" font-size="10" text-anchor="middle" fill="#0369A1">共有デバイス</text>
  
  <rect x="530" y="540" width="120" height="110" rx="8" fill="#E0F2FE" stroke="#0EA5E9" stroke-width="2"/>
  <text x="590" y="560" font-family="Arial, sans-serif" font-size="14" font-weight="bold" text-anchor="middle" fill="#0369A1">IoTデバイス</text>
  <rect x="545" y="570" width="90" height="30" rx="5" fill="#BAE6FD" stroke="#0EA5E9" stroke-width="1"/>
  <text x="590" y="590" font-family="Arial, sans-serif" font-size="10" text-anchor="middle" fill="#0369A1">環境センサー</text>
  <rect x="545" y="610" width="90" height="30" rx="5" fill="#BAE6FD" stroke="#0EA5E9" stroke-width="1"/>
  <text x="590" y="630" font-family="Arial, sans-serif" font-size="10" text-anchor="middle" fill="#0369A1">情報キオスク</text>
  
  <!-- インターネットとデバイスの接続 -->
  <line x1="140" y1="540" x2="280" y2="470" stroke="#4B5563" stroke-width="2"/>
  <polygon points="275,475 285,465 270,465" fill="#4B5563"/>
  
  <line x1="290" y1="540" x2="350" y2="470" stroke="#4B5563" stroke-width="2"/>
  <polygon points="345,475 355,465 340,465" fill="#4B5563"/>
  
  <line x1="440" y1="540" x2="400" y2="480" stroke="#4B5563" stroke-width="2"/>
  <polygon points="395,485 405,475 390,475" fill="#4B5563"/>
  
  <line x1="590" y1="540" x2="500" y2="470" stroke="#4B5563" stroke-width="2"/>
  <polygon points="495,475 505,465 490,465" fill="#4B5563"/>
  
  <!-- セキュリティ情報 -->
  <rect x="50" y="680" width="700" height="20" rx="0" fill="#F3F4F6"/>
  <text x="400" y="695" font-family="Arial, sans-serif" font-size="12" text-anchor="middle" fill="#4B5563">セキュリティ対策: 多要素認証 | TLS暗号化 | ファイアウォール | DDoS保護 | 条件付きアクセス</text>
</svg>
